<?xml version="1.0" encoding="UTF-8"?>
<svg xmlns="http://www.w3.org/2000/svg" xmlns:xlink="http://www.w3.org/1999/xlink" version="1.1" width="512" height="512" x="0" y="0" viewBox="0 0 682.667 682.667" style="enable-background:new 0 0 512 512" xml:space="preserve">
  <g>
    <defs>
      <clipPath id="a">
        <path d="M0 512h512V0H0Z" fill="#bd0f12" opacity="1" data-original="#000000"/>
      </clipPath>
    </defs>
    <g clip-path="url(#a)" transform="matrix(1.33333 0 0 -1.33333 0 682.667)">
      <path d="M0 0c17.423 11.628 37.876 16.915 60.613 9.67 66.401-21.158 64.484-46.231 57.053-76.637-10.158-38.124-32.416-62.909-90.706-56.678-5.746-68.516 24.624-115.569 15.596-184.085 70.414 93.665 165.896 58.381 203.218 10.238m-30.763 27.765c25.731 44.822 67.903 59.983 103.738 49.866 94.594-26.707 134.844-209.476-71.815-237.284-107.434-49.115-159.711-2.11-236.39 11.556-103.723 14.954-71.885 31.992-93.57 82.549-36.115 84.201 14.774 229.487 20.52 264.984 1.156 7.146 4.032 16.679 8.449 27.163" style="stroke-width:20;stroke-linecap:round;stroke-linejoin:round;stroke-miterlimit:22.926;stroke-dasharray:none;stroke-opacity:1" transform="translate(105.874 489.02)" fill="none" stroke="#bd0f12" stroke-width="20" stroke-linecap="round" stroke-linejoin="round" stroke-miterlimit="22.926" stroke-dasharray="none" stroke-opacity="" data-original="#000000" opacity="1"/>
      <path d="M0 0c-11.943 1.559-20.801 5.572-26.547 12.031" style="stroke-width:20;stroke-linecap:round;stroke-linejoin:round;stroke-miterlimit:22.926;stroke-dasharray:none;stroke-opacity:1" transform="translate(132.835 365.375)" fill="none" stroke="#bd0f12" stroke-width="20" stroke-linecap="round" stroke-linejoin="round" stroke-miterlimit="22.926" stroke-dasharray="none" stroke-opacity="" data-original="#000000" opacity="1"/>
      <path d="M0 0s-50.377-23.256-109.838 4.153" style="stroke-width:20;stroke-linecap:round;stroke-linejoin:round;stroke-miterlimit:22.926;stroke-dasharray:none;stroke-opacity:1" transform="translate(312.366 122.065)" fill="none" stroke="#bd0f12" stroke-width="20" stroke-linecap="round" stroke-linejoin="round" stroke-miterlimit="22.926" stroke-dasharray="none" stroke-opacity="" data-original="#000000" opacity="1"/>
      <path d="M0 0h.007" style="stroke-width:20;stroke-linecap:round;stroke-linejoin:round;stroke-miterlimit:2.613;stroke-dasharray:none;stroke-opacity:1" transform="translate(73.931 457.323)" fill="none" stroke="#bd0f12" stroke-width="20" stroke-linecap="round" stroke-linejoin="round" stroke-miterlimit="2.613" stroke-dasharray="none" stroke-opacity="" data-original="#000000" opacity="1"/>
    </g>
  </g>
</svg>
