<?xml version="1.0" encoding="utf-8" ?><svg xmlns="http://www.w3.org/2000/svg" xmlns:xlink="http://www.w3.org/1999/xlink" width="265" height="145" viewBox="0 0 265 145"><path d="M167.667 1.9348C167.902 2.6369 151.816 45.6564 150.296 49.1896C164.051 49.4449 178.141 49.3367 192.014 49.5102C191.57 41.6335 191.688 31.3877 191.997 23.5107L214.659 23.5237C214.792 25.3923 214.781 27.5765 214.775 29.4593C214.712 49.1733 214.379 69.0273 214.683 88.7396L191.963 88.8032C191.521 80.7849 191.976 71.1208 191.893 62.8945C174.064 62.6586 155.719 62.7095 137.87 62.7431C138.188 59.7094 140.535 52.1277 141.485 49.0205C143.274 43.1716 145.027 36.9222 146.957 31.1512C145.514 32.8064 143.733 34.8183 142.13 36.3147C131.768 45.9882 121.954 57.3421 111.515 66.8151C114.791 66.2764 127.64 66.5293 131.453 66.5415L177.971 67.0242C174.712 69.1798 172.069 72.0275 169.246 74.7009C148.877 93.9869 128.748 113.726 108.175 132.778C105.295 135.436 102.395 138.364 99.5871 141.123C100.525 138.091 101.219 134.381 102.138 131.197L111.971 97.3038C111.47 97.3612 110.87 97.4181 110.369 97.4233C97.5762 97.554 84.7642 97.3221 71.9706 97.4874C72.0979 99.9461 71.9655 103.438 71.9638 105.983L71.9168 122.674C65.1432 122.99 56.2722 122.753 49.3965 122.751C49.1221 116.457 49.272 109.291 49.316 102.95L49.3082 74.4854C49.3009 69.0195 49.4509 62.9284 49.2501 57.5515L71.9545 57.5505C72.2515 66.2273 71.7149 75.3574 72.0466 84.2097C89.2347 84.5325 106.92 83.8019 124.074 84.3837C123.721 89.7073 121.258 101.389 119.987 106.659L142.188 87.176C146.438 83.448 150.892 79.2912 155.253 75.7545C148.537 76.0864 141.241 75.9363 134.477 75.9529L106.206 76.1519C100.502 76.1836 95.7392 75.9069 89.9898 76.2845C101.787 64.5199 113.894 53.2964 125.937 41.841L157.739 11.188C160.977 8.07992 164.546 4.98443 167.667 1.9348Z"/><path d="M228.198 28.6113C229.676 28.453 235.693 28.6001 237.395 28.6005L237.501 80.8675L227.562 80.6708C224.224 80.5762 220.965 80.5317 217.63 80.7587C217.169 69.9565 218.083 59.058 217.68 48.2394C217.445 41.9176 217.357 34.9461 217.873 28.6478C220.83 28.8381 225.273 28.7793 228.198 28.6113Z"/><path d="M26.5363 62.7026C30.4983 62.4404 42.5123 62.6602 46.4567 62.9192C46.4954 68.4892 46.4473 74.0807 46.3986 79.6509C46.375 82.3426 46.0119 85.3625 46.092 88.002C46.3526 96.5902 46.7288 105.353 46.1152 113.94L45.988 114.314C45.1281 114.942 29.0225 114.753 26.5197 114.751C26.2999 97.7823 26.4576 79.6744 26.5363 62.7026Z"/><path d="M240.53 41.1585C247.489 41.109 254.484 41.2613 261.464 41.2214C261.117 50.7511 261.979 62.0468 261.359 71.4469C258.638 71.4582 242.296 71.8467 240.891 70.995C240.3 68.9286 240.604 64.616 240.519 62.3606C240.266 55.6441 240.889 47.7792 240.53 41.1585Z"/><path d="M2.47312 75.2291C8.93222 75.2376 16.9241 75.4428 23.2561 75.1445L23.2233 105.457C17.4016 105.764 8.56508 105.477 2.5253 105.446C2.37578 95.4076 2.67692 85.2517 2.47312 75.2291Z"/></svg>